<svg width="16" height="24" viewBox="0 0 16 24" fill="none" xmlns="http://www.w3.org/2000/svg">
<path d="M16 24H0V0H16V24Z" stroke="#E5E7EB"/>
<g clip-path="url(#clip0_3_415)">
<path d="M5.15312 3.76897C4.9125 3.18772 4.27812 2.87834 3.67188 3.04397L0.921875 3.79397C0.378125 3.94397 0 4.43772 0 5.00022C0 12.7315 6.26875 19.0002 14 19.0002C14.5625 19.0002 15.0563 18.6221 15.2063 18.0783L15.9563 15.3283C16.1219 14.7221 15.8125 14.0877 15.2312 13.8471L12.2312 12.5971C11.7219 12.3846 11.1313 12.5315 10.7844 12.9596L9.52188 14.5002C7.32188 13.4596 5.54062 11.6783 4.5 9.47834L6.04063 8.21897C6.46875 7.86897 6.61562 7.28147 6.40312 6.77209L5.15312 3.77209V3.76897Z" fill="#38BDF8"/>
</g>
<defs>
<clipPath id="clip0_3_415">
<path d="M0 3H16V19H0V3Z" fill="white"/>
</clipPath>
</defs>
</svg>
