<svg width="23" height="21" viewBox="0 0 23 21" fill="none" xmlns="http://www.w3.org/2000/svg">
<g clip-path="url(#clip0_3_239)">
<path d="M0.484375 1.4375C0.484375 0.917969 0.902344 0.5 1.42188 0.5H3.19922C4.05859 0.5 4.82031 1 5.17578 1.75H21.2305C22.2578 1.75 23.0078 2.72656 22.7383 3.71875L21.1367 9.66797C20.8047 10.8945 19.6914 11.75 18.4219 11.75H7.15234L7.36328 12.8633C7.44922 13.3047 7.83594 13.625 8.28516 13.625H19.5469C20.0664 13.625 20.4844 14.043 20.4844 14.5625C20.4844 15.082 20.0664 15.5 19.5469 15.5H8.28516C6.93359 15.5 5.77344 14.5391 5.52344 13.2148L3.50781 2.62891C3.48047 2.48047 3.35156 2.375 3.19922 2.375H1.42188C0.902344 2.375 0.484375 1.95703 0.484375 1.4375ZM5.48438 18.625C5.48437 18.3788 5.53287 18.135 5.6271 17.9075C5.72133 17.68 5.85944 17.4733 6.03355 17.2992C6.20766 17.1251 6.41436 16.987 6.64184 16.8927C6.86933 16.7985 7.11315 16.75 7.35938 16.75C7.6056 16.75 7.84942 16.7985 8.07691 16.8927C8.30439 16.987 8.51109 17.1251 8.6852 17.2992C8.85931 17.4733 8.99742 17.68 9.09165 17.9075C9.18588 18.135 9.23438 18.3788 9.23438 18.625C9.23438 18.8712 9.18588 19.115 9.09165 19.3425C8.99742 19.57 8.85931 19.7767 8.6852 19.9508C8.51109 20.1249 8.30439 20.263 8.07691 20.3573C7.84942 20.4515 7.6056 20.5 7.35938 20.5C7.11315 20.5 6.86933 20.4515 6.64184 20.3573C6.41436 20.263 6.20766 20.1249 6.03355 19.9508C5.85944 19.7767 5.72133 19.57 5.6271 19.3425C5.53287 19.115 5.48437 18.8712 5.48438 18.625ZM18.6094 16.75C19.1067 16.75 19.5836 16.9475 19.9352 17.2992C20.2868 17.6508 20.4844 18.1277 20.4844 18.625C20.4844 19.1223 20.2868 19.5992 19.9352 19.9508C19.5836 20.3025 19.1067 20.5 18.6094 20.5C18.1121 20.5 17.6352 20.3025 17.2835 19.9508C16.9319 19.5992 16.7344 19.1223 16.7344 18.625C16.7344 18.1277 16.9319 17.6508 17.2835 17.2992C17.6352 16.9475 18.1121 16.75 18.6094 16.75Z" fill="white"/>
</g>
<defs>
<clipPath id="clip0_3_239">
<path d="M0.484375 0.5H22.9844V20.5H0.484375V0.5Z" fill="white"/>
</clipPath>
</defs>
</svg>
