<svg width="64" height="64" viewBox="0 0 64 64" fill="none" xmlns="http://www.w3.org/2000/svg">
<path d="M32 0C49.6731 0 64 14.3269 64 32C64 49.6731 49.6731 64 32 64C14.3269 64 0 49.6731 0 32C0 14.3269 14.3269 0 32 0Z" fill="#38BDF8" fill-opacity="0.2"/>
<path d="M32 0C49.6731 0 64 14.3269 64 32C64 49.6731 49.6731 64 32 64C14.3269 64 0 49.6731 0 32C0 14.3269 14.3269 0 32 0Z" stroke="#E5E7EB"/>
<path d="M42.5 48H21.5V16H42.5V48Z" stroke="#E5E7EB"/>
<g clip-path="url(#clip0_3_188)">
<path d="M26 19C23.5156 19 21.5 21.0156 21.5 23.5V38.5C21.5 40.9844 23.5156 43 26 43H39.5H41C41.8297 43 42.5 42.3297 42.5 41.5C42.5 40.6703 41.8297 40 41 40V37C41.8297 37 42.5 36.3297 42.5 35.5V20.5C42.5 19.6703 41.8297 19 41 19H39.5H26ZM26 37H38V40H26C25.1703 40 24.5 39.3297 24.5 38.5C24.5 37.6703 25.1703 37 26 37ZM27.5 25.75C27.5 25.3375 27.8375 25 28.25 25H37.25C37.6625 25 38 25.3375 38 25.75C38 26.1625 37.6625 26.5 37.25 26.5H28.25C27.8375 26.5 27.5 26.1625 27.5 25.75ZM28.25 28H37.25C37.6625 28 38 28.3375 38 28.75C38 29.1625 37.6625 29.5 37.25 29.5H28.25C27.8375 29.5 27.5 29.1625 27.5 28.75C27.5 28.3375 27.8375 28 28.25 28Z" fill="#38BDF8"/>
</g>
<defs>
<clipPath id="clip0_3_188">
<path d="M21.5 19H42.5V43H21.5V19Z" fill="white"/>
</clipPath>
</defs>
</svg>
