<svg width="16" height="24" viewBox="0 0 16 24" fill="none" xmlns="http://www.w3.org/2000/svg">
<path d="M16 24H0V0H16V24Z" stroke="#E5E7EB"/>
<path d="M16 19H0V3H16V19Z" stroke="#E5E7EB"/>
<path d="M1.5 5C0.671875 5 0 5.67188 0 6.5C0 6.97188 0.221875 7.41562 0.6 7.7L7.4 12.8C7.75625 13.0656 8.24375 13.0656 8.6 12.8L15.4 7.7C15.7781 7.41562 16 6.97188 16 6.5C16 5.67188 15.3281 5 14.5 5H1.5ZM0 8.5V15C0 16.1031 0.896875 17 2 17H14C15.1031 17 16 16.1031 16 15V8.5L9.2 13.6C8.4875 14.1344 7.5125 14.1344 6.8 13.6L0 8.5Z" fill="#38BDF8"/>
</svg>
