<svg width="22" height="32" viewBox="0 0 22 32" fill="none" xmlns="http://www.w3.org/2000/svg">
<path d="M21.5 32H0.5V0H21.5V32Z" stroke="#E5E7EB"/>
<g clip-path="url(#clip0_3_276)">
<path d="M5 3C2.51562 3 0.5 5.01562 0.5 7.5V22.5C0.5 24.9844 2.51562 27 5 27H18.5H20C20.8297 27 21.5 26.3297 21.5 25.5C21.5 24.6703 20.8297 24 20 24V21C20.8297 21 21.5 20.3297 21.5 19.5V4.5C21.5 3.67031 20.8297 3 20 3H18.5H5ZM5 21H17V24H5C4.17031 24 3.5 23.3297 3.5 22.5C3.5 21.6703 4.17031 21 5 21ZM6.5 9.75C6.5 9.3375 6.8375 9 7.25 9H16.25C16.6625 9 17 9.3375 17 9.75C17 10.1625 16.6625 10.5 16.25 10.5H7.25C6.8375 10.5 6.5 10.1625 6.5 9.75ZM7.25 12H16.25C16.6625 12 17 12.3375 17 12.75C17 13.1625 16.6625 13.5 16.25 13.5H7.25C6.8375 13.5 6.5 13.1625 6.5 12.75C6.5 12.3375 6.8375 12 7.25 12Z" fill="#38BDF8"/>
</g>
<defs>
<clipPath id="clip0_3_276">
<path d="M0.5 3H21.5V27H0.5V3Z" fill="white"/>
</clipPath>
</defs>
</svg>
