<svg width="12" height="24" viewBox="0 0 12 24" fill="none" xmlns="http://www.w3.org/2000/svg">
<path d="M12 24H0V0H12V24Z" stroke="#E5E7EB"/>
<g clip-path="url(#clip0_3_411)">
<path d="M6.74062 18.6C8.34375 16.5938 12 11.7313 12 9C12 5.6875 9.3125 3 6 3C2.6875 3 0 5.6875 0 9C0 11.7313 3.65625 16.5938 5.25938 18.6C5.64375 19.0781 6.35625 19.0781 6.74062 18.6ZM6 7C6.53043 7 7.03914 7.21071 7.41421 7.58579C7.78929 7.96086 8 8.46957 8 9C8 9.53043 7.78929 10.0391 7.41421 10.4142C7.03914 10.7893 6.53043 11 6 11C5.46957 11 4.96086 10.7893 4.58579 10.4142C4.21071 10.0391 4 9.53043 4 9C4 8.46957 4.21071 7.96086 4.58579 7.58579C4.96086 7.21071 5.46957 7 6 7Z" fill="#38BDF8"/>
</g>
<defs>
<clipPath id="clip0_3_411">
<path d="M0 3H12V19H0V3Z" fill="white"/>
</clipPath>
</defs>
</svg>
