<svg width="24" height="24" viewBox="0 0 24 24" fill="none" xmlns="http://www.w3.org/2000/svg">
<g clip-path="url(#clip0_3_379)">
<path d="M7.34064 18.0423L5.8922 16.5938C5.49376 16.1954 5.35314 15.6188 5.53126 15.0845C5.67189 14.6673 5.85939 14.1235 6.08439 13.5001H1.12502C0.72189 13.5001 0.34689 13.2845 0.145327 12.9329C-0.0562351 12.5813 -0.0515476 12.1501 0.154702 11.8032L2.61564 7.65476C3.22501 6.6282 4.32658 6.00008 5.5172 6.00008H9.37502C9.48752 5.81258 9.60001 5.63914 9.71251 5.47039C13.5516 -0.192112 19.2703 -0.379612 22.6828 0.248513C23.2266 0.346951 23.6485 0.773513 23.7516 1.31726C24.3797 4.73445 24.1875 10.4485 18.5297 14.2876C18.3656 14.4001 18.1875 14.5126 18 14.6251V18.4829C18 19.6735 17.3719 20.7798 16.3453 21.3845L12.1969 23.8454C11.85 24.0516 11.4188 24.0563 11.0672 23.8548C10.7156 23.6532 10.5 23.2829 10.5 22.8751V17.8501C9.83908 18.0798 9.26252 18.2673 8.82658 18.4079C8.30158 18.5766 7.7297 18.4313 7.33595 18.0423H7.34064ZM18 7.87508C18.4973 7.87508 18.9742 7.67753 19.3258 7.3259C19.6775 6.97427 19.875 6.49736 19.875 6.00008C19.875 5.50279 19.6775 5.02588 19.3258 4.67425C18.9742 4.32262 18.4973 4.12508 18 4.12508C17.5027 4.12508 17.0258 4.32262 16.6742 4.67425C16.3226 5.02588 16.125 5.50279 16.125 6.00008C16.125 6.49736 16.3226 6.97427 16.6742 7.3259C17.0258 7.67753 17.5027 7.87508 18 7.87508Z" fill="#38BDF8"/>
</g>
<defs>
<clipPath id="clip0_3_379">
<path d="M0 0H24V24H0V0Z" fill="white"/>
</clipPath>
</defs>
</svg>
